<svg class="diagram-root" style="background: #f5f6f6" xmlns="http://www.w3.org/2000/svg" xmlns:xlink="http://www.w3.org/1999/xlink"><style>.diagram-root { font-family: "Helvetica Neue", sans-serif; font-size: 12px; } .t { overflow: visible; } .t-bg { y: 40; fill: #fff;   } .th { fill: #005aa0;   } .tht { fill: #fff; font-size: 14px;  } .tf { fill: #323c46; overflow: visible; } .tf.pk { fill: #005aa0; font-weight: bold; } .tf.fk { font-weight: bold; } .ty { fill: #adb1b5; font-weight: normal; text-anchor: end; } .r { fill: transparent; stroke: #c3c3c3; stroke-width: 1; } .l { stroke: 1; } .i { fill: #c2c7ce; stroke: #c2c7ce; } .i.ix { fill: #afb3b6; stroke: #000; } .fa { fill: transparent; overflow: visible; } .fa .bg.hover { fill: #f7f7f7; } .c { cy: 12; r: 4; stroke: #d2d2dc; fill: #d2d2dc; } .hr { fill: transparent; stroke: #323c46; stroke-opacity: 0.035; stroke-width: 13; } .dc { stroke: #fa5a3c; fill: #fa5a3c; } .x { stroke: white; stroke-width: 1; } .hl .th { fill: #1b9bff; } .hl .tht {  } .fhl .bg { fill: #e7f4ff; } .fhls .bg {  } .r.hl { stroke: #1b9bff; } .dim { opacity: 0.25; }</style><g class="drawing-wrapper" transform="translate(-160, -28) scale(1,1)"><g class="rs"><path d="M 712.87 140 m -1, 0 a 1,1 0 1,0 2,0 a 1,1 0 1,0 -2,0 M 712.87 140 m -0.5, 0 a 0.5,0.5 0 1,0 1,0 a 0.5,0.5 0 1,0 -1,0  M712.87 140 L712.87 140 724.87 140 M 712.87 146 m -1, 0 a 1,1 0 1,0 2,0 a 1,1 0 1,0 -2,0 M 712.87 146 m -0.5, 0 a 0.5,0.5 0 1,0 1,0 a 0.5,0.5 0 1,0 -1,0  M712.87 146 L712.87 146 719.87 140 712.87 134 M 712.87 134 m -1, 0 a 1,1 0 1,0 2,0 a 1,1 0 1,0 -2,0 M 712.87 134 m -0.5, 0 a 0.5,0.5 0 1,0 1,0 a 0.5,0.5 0 1,0 -1,0  M724.87 140 Q 778.16 140, 831.44 136.5 T 938 133 M 950 133 m -1, 0 a 1,1 0 1,0 2,0 a 1,1 0 1,0 -2,0 M 950 133 m -0.5, 0 a 0.5,0.5 0 1,0 1,0 a 0.5,0.5 0 1,0 -1,0  M950 133 L950 133 938 133 M944 139 L944 139 944 127" id="h2303599080" class="r"></path><path d="M 950 158 m -1, 0 a 1,1 0 1,0 2,0 a 1,1 0 1,0 -2,0 M 950 158 m -0.5, 0 a 0.5,0.5 0 1,0 1,0 a 0.5,0.5 0 1,0 -1,0  M950 158 L950 158 938 158 M 950 164 m -1, 0 a 1,1 0 1,0 2,0 a 1,1 0 1,0 -2,0 M 950 164 m -0.5, 0 a 0.5,0.5 0 1,0 1,0 a 0.5,0.5 0 1,0 -1,0  M950 164 L950 164 943 158 950 152 M 950 152 m -1, 0 a 1,1 0 1,0 2,0 a 1,1 0 1,0 -2,0 M 950 152 m -0.5, 0 a 0.5,0.5 0 1,0 1,0 a 0.5,0.5 0 1,0 -1,0  M938 158 C 880 158, 883 448, 933 448 M 945 448 m -1, 0 a 1,1 0 1,0 2,0 a 1,1 0 1,0 -2,0 M 945 448 m -0.5, 0 a 0.5,0.5 0 1,0 1,0 a 0.5,0.5 0 1,0 -1,0  M945 448 L945 448 933 448 M939 454 L939 454 939 442" id="h3170599543" class="r"></path><path d="M 351.85 152 m -1, 0 a 1,1 0 1,0 2,0 a 1,1 0 1,0 -2,0 M 351.85 152 m -0.5, 0 a 0.5,0.5 0 1,0 1,0 a 0.5,0.5 0 1,0 -1,0  M351.85 152 L351.85 152 363.85 152 M 351.85 158 m -1, 0 a 1,1 0 1,0 2,0 a 1,1 0 1,0 -2,0 M 351.85 158 m -0.5, 0 a 0.5,0.5 0 1,0 1,0 a 0.5,0.5 0 1,0 -1,0  M351.85 158 L351.85 158 358.85 152 351.85 146 M 351.85 146 m -1, 0 a 1,1 0 1,0 2,0 a 1,1 0 1,0 -2,0 M 351.85 146 m -0.5, 0 a 0.5,0.5 0 1,0 1,0 a 0.5,0.5 0 1,0 -1,0  M363.85 152 Q 397.39 152, 430.93 133.5 T 498 115 M 510 115 m -1, 0 a 1,1 0 1,0 2,0 a 1,1 0 1,0 -2,0 M 510 115 m -0.5, 0 a 0.5,0.5 0 1,0 1,0 a 0.5,0.5 0 1,0 -1,0  M510 115 L510 115 498 115 M504 121 L504 121 504 109" id="h2717743943" class="r"></path><path d="M 182 177 m -1, 0 a 1,1 0 1,0 2,0 a 1,1 0 1,0 -2,0 M 182 177 m -0.5, 0 a 0.5,0.5 0 1,0 1,0 a 0.5,0.5 0 1,0 -1,0  M182 177 L182 177 170 177 M 182 183 m -1, 0 a 1,1 0 1,0 2,0 a 1,1 0 1,0 -2,0 M 182 183 m -0.5, 0 a 0.5,0.5 0 1,0 1,0 a 0.5,0.5 0 1,0 -1,0  M182 183 L182 183 175 177 182 171 M 182 171 m -1, 0 a 1,1 0 1,0 2,0 a 1,1 0 1,0 -2,0 M 182 171 m -0.5, 0 a 0.5,0.5 0 1,0 1,0 a 0.5,0.5 0 1,0 -1,0  M170 177 C 120 177, 109.8 407, 187 407 M 199 407 m -1, 0 a 1,1 0 1,0 2,0 a 1,1 0 1,0 -2,0 M 199 407 m -0.5, 0 a 0.5,0.5 0 1,0 1,0 a 0.5,0.5 0 1,0 -1,0  M199 407 L199 407 187 407 M193 413 L193 413 193 401" id="h3892372164" class="r"></path></g><g class="hrs"></g><g class="ts"><svg width="202.87" height="300" x="510" y="58" id="h4012477226" class="t"><rect height="40" width="202.87" class="th"></rect><text x="13" y="25" class="tht">Vehicle</text><rect height="260" width="202.87" class="t-bg" y="40"></rect><text x="13" y="61" class="tf pk">id<tspan x="189.87" class="ty">int</tspan></text><path d="M7,14A2,2 0 0,1 5,12A2,2 0 0,1 7,10A2,2 0 0,1 9,12A2,2 0 0,1 7,14M12.65,10C11.83,7.67 9.61,6 7, 6A6, 6 0 0, 0 1, 12A6, 6 0 0, 0 7, 18C9.61, 18 11.83, 16.33 12.65, 14H17V18H21V14H23V10H12.65Z" class="i pk" transform="translate(154.23666679382325, 48) scale(0.65)"></path><text x="13" y="86" class="tf fk">id_model<tspan x="189.87" class="ty">int</tspan></text><text x="13" y="111" class="tf">license_plate<tspan x="189.87" class="ty">varchar(7)</tspan></text><path d="M22,18V22H18V19H15V16H12L9.74,13.74C9.19,13.91 8.61,14 8,14A6,6 0 0,1 2,8A6,6 0 0,1 8,2A6,6 0 0,1 14,8C14,8.61 13.91, 9.19 13.74, 9.74L22, 18M7, 5A2, 2 0 0, 0 5, 7A2, 2 0 0, 0 7, 9A2, 2 0 0, 0 9, 7A2, 2 0 0, 0 7, 5Z" class="i uq" transform="translate(111.27000152587891, 100.5) scale(0.5)"></path><text x="13" y="136" class="tf">num_doors<tspan x="189.87" class="ty">tinyint</tspan></text><text x="13" y="161" class="tf">fuel_type<tspan x="189.87" class="ty">tinyint</tspan></text><text x="13" y="186" class="tf">mileage<tspan x="189.87" class="ty">int</tspan></text><text x="13" y="211" class="tf">renavam<tspan x="189.87" class="ty">varchar(11)</tspan></text><text x="13" y="236" class="tf">chassi<tspan x="189.87" class="ty">varchar(17)</tspan></text><text x="13" y="261" class="tf">rent_price<tspan x="189.87" class="ty">numeric(19,4)</tspan></text><text x="13" y="286" class="tf">available<tspan x="189.87" class="ty">bool</tspan></text></svg><svg width="190.58" height="125" x="945" y="391" id="h1288059673" class="t"><rect height="40" width="190.58" class="th"></rect><text x="13" y="25" class="tht">Brand</text><rect height="85" width="190.58" class="t-bg" y="40"></rect><text x="13" y="61" class="tf pk">id<tspan x="177.58" class="ty">int</tspan></text><path d="M7,14A2,2 0 0,1 5,12A2,2 0 0,1 7,10A2,2 0 0,1 9,12A2,2 0 0,1 7,14M12.65,10C11.83,7.67 9.61,6 7, 6A6, 6 0 0, 0 1, 12A6, 6 0 0, 0 7, 18C9.61, 18 11.83, 16.33 12.65, 14H17V18H21V14H23V10H12.65Z" class="i pk" transform="translate(141.94666679382325, 48) scale(0.65)"></path><text x="13" y="86" class="tf">cnpj<tspan x="177.58" class="ty">varchar(14)</tspan></text><path d="M22,18V22H18V19H15V16H12L9.74,13.74C9.19,13.91 8.61,14 8,14A6,6 0 0,1 2,8A6,6 0 0,1 8,2A6,6 0 0,1 14,8C14,8.61 13.91, 9.19 13.74, 9.74L22, 18M7, 5A2, 2 0 0, 0 5, 7A2, 2 0 0, 0 7, 9A2, 2 0 0, 0 9, 7A2, 2 0 0, 0 7, 5Z" class="i uq" transform="translate(91.3466702270508, 75.5) scale(0.5)"></path><text x="13" y="111" class="tf">description<tspan x="177.58" class="ty">varchar(100)</tspan></text></svg><svg width="190.58" height="125" x="950" y="76" id="h1873762844" class="t"><rect height="40" width="190.58" class="th"></rect><text x="13" y="25" class="tht">Model</text><rect height="85" width="190.58" class="t-bg" y="40"></rect><text x="13" y="61" class="tf pk">id<tspan x="177.58" class="ty">int</tspan></text><path d="M7,14A2,2 0 0,1 5,12A2,2 0 0,1 7,10A2,2 0 0,1 9,12A2,2 0 0,1 7,14M12.65,10C11.83,7.67 9.61,6 7, 6A6, 6 0 0, 0 1, 12A6, 6 0 0, 0 7, 18C9.61, 18 11.83, 16.33 12.65, 14H17V18H21V14H23V10H12.65Z" class="i pk" transform="translate(141.94666679382325, 48) scale(0.65)"></path><text x="13" y="86" class="tf fk">id_brand<tspan x="177.58" class="ty">int</tspan></text><text x="13" y="111" class="tf">description<tspan x="177.58" class="ty">varchar(100)</tspan></text></svg><svg width="169.85" height="175" x="182" y="70" id="h240705295" class="t"><rect height="40" width="169.85" class="th"></rect><text x="13" y="25" class="tht">Rental</text><rect height="135" width="169.85" class="t-bg" y="40"></rect><text x="13" y="61" class="tf pk">id<tspan x="156.85" class="ty">int</tspan></text><path d="M7,14A2,2 0 0,1 5,12A2,2 0 0,1 7,10A2,2 0 0,1 9,12A2,2 0 0,1 7,14M12.65,10C11.83,7.67 9.61,6 7, 6A6, 6 0 0, 0 1, 12A6, 6 0 0, 0 7, 18C9.61, 18 11.83, 16.33 12.65, 14H17V18H21V14H23V10H12.65Z" class="i pk" transform="translate(121.21666679382324, 48) scale(0.65)"></path><text x="13" y="86" class="tf fk">id_vehicle<tspan x="156.85" class="ty">int</tspan></text><text x="13" y="111" class="tf fk">id_customer<tspan x="156.85" class="ty">int</tspan></text><text x="13" y="136" class="tf">rental_date<tspan x="156.85" class="ty">Datetime</tspan></text><text x="13" y="161" class="tf">due_date<tspan x="156.85" class="ty">Datetime</tspan></text></svg><svg width="180.83" height="225" x="199" y="350" id="h1304670300" class="t"><rect height="40" width="180.83" class="th"></rect><text x="13" y="25" class="tht">Customer</text><rect height="185" width="180.83" class="t-bg" y="40"></rect><text x="13" y="61" class="tf pk">id<tspan x="167.83" class="ty">int</tspan></text><path d="M7,14A2,2 0 0,1 5,12A2,2 0 0,1 7,10A2,2 0 0,1 9,12A2,2 0 0,1 7,14M12.65,10C11.83,7.67 9.61,6 7, 6A6, 6 0 0, 0 1, 12A6, 6 0 0, 0 7, 18C9.61, 18 11.83, 16.33 12.65, 14H17V18H21V14H23V10H12.65Z" class="i pk" transform="translate(132.19666679382325, 48) scale(0.65)"></path><text x="13" y="86" class="tf">cpf<tspan x="167.83" class="ty">varchar(11)</tspan></text><path d="M22,18V22H18V19H15V16H12L9.74,13.74C9.19,13.91 8.61,14 8,14A6,6 0 0,1 2,8A6,6 0 0,1 8,2A6,6 0 0,1 14,8C14,8.61 13.91, 9.19 13.74, 9.74L22, 18M7, 5A2, 2 0 0, 0 5, 7A2, 2 0 0, 0 7, 9A2, 2 0 0, 0 9, 7A2, 2 0 0, 0 7, 5Z" class="i uq" transform="translate(81.5966702270508, 75.5) scale(0.5)"></path><text x="13" y="111" class="tf">name<tspan x="167.83" class="ty">varchar(100)</tspan></text><text x="13" y="136" class="tf">email<tspan x="167.83" class="ty">varchar(100)</tspan></text><text x="13" y="161" class="tf">phone<tspan x="167.83" class="ty">varchar(20)</tspan></text><text x="13" y="186" class="tf">address<tspan x="167.83" class="ty">varchar(100)</tspan></text><text x="13" y="211" class="tf">password<tspan x="167.83" class="ty">varchar(100)</tspan></text></svg></g></g><text class="qdbd-link" x="10" y="20">www.quickdatabasediagrams.com</text></svg>